<?xml version="1.0" encoding="UTF-8" standalone="no" ?>
<!DOCTYPE svg PUBLIC "-//W3C//DTD SVG 1.1//EN" "http://www.w3.org/Graphics/SVG/1.1/DTD/svg11.dtd">
<svg xmlns="http://www.w3.org/2000/svg" xmlns:xlink="http://www.w3.org/1999/xlink" version="1.1" width="1080" height="1080" viewBox="0 0 1080 1080" xml:space="preserve">
<desc>Created with Fabric.js 5.2.4</desc>
<defs>
</defs>
<g transform="matrix(1 0 0 1 540 540)" id="31b51cf6-162a-463e-9fc9-659709c00706"  >
<rect style="stroke: none; stroke-width: 1; stroke-dasharray: none; stroke-linecap: butt; stroke-dashoffset: 0; stroke-linejoin: miter; stroke-miterlimit: 4; fill: rgb(255,255,255); fill-rule: nonzero; opacity: 1; visibility: hidden;" vector-effect="non-scaling-stroke"  x="-540" y="-540" rx="0" ry="0" width="1080" height="1080" />
</g>
<g transform="matrix(1 0 0 1 540 540)" id="d711141c-d1f9-4546-b140-34ae7917bbef"  >
</g>
<g transform="matrix(1 0 0 1 540 540)"  >
<rect style="stroke: none; stroke-width: 1; stroke-dasharray: none; stroke-linecap: butt; stroke-dashoffset: 0; stroke-linejoin: miter; stroke-miterlimit: 4; fill: rgb(59,130,246); fill-rule: nonzero; opacity: 1;" vector-effect="non-scaling-stroke"  x="-540" y="-540" rx="0" ry="0" width="1080" height="1080" />
</g>
<g transform="matrix(1 0 0 1 531.88 461.25)"  >
<path style="stroke: none; stroke-width: 1; stroke-dasharray: none; stroke-linecap: butt; stroke-dashoffset: 0; stroke-linejoin: miter; stroke-miterlimit: 4; fill: rgb(255,255,255); fill-rule: nonzero; opacity: 1;" vector-effect="non-scaling-stroke"  transform=" translate(-426.4, -343.06)" d="M 454.963989 327.67746 C 483.278595 327.820251 503.89389 315.899811 514.266113 289.823914 C 526.682983 258.607788 512.438599 222.612869 478.932159 210.190277 C 471.22998 207.334686 463.280609 206.163559 455.004028 206.227997 C 430.173553 206.421341 405.340393 206.264725 380.508301 206.273804 C 373.548706 206.276352 373.233337 206.604126 373.238251 213.690201 C 373.257416 241.507385 372.745819 269.339783 373.505402 297.137238 C 374.188263 322.127228 373.843658 347.107239 373.686523 372.074493 C 373.521912 398.232483 373.447968 424.393066 373.298981 450.552307 C 373.238342 461.201538 374.329712 471.83667 373.34436 482.508911 C 373.017822 486.045349 372.241943 488.884735 369.454041 491.23764 C 359.654999 499.507599 350.017303 507.969147 340.197968 516.2146 C 325.279541 528.741821 310.29483 541.190979 295.250641 553.566772 C 292.701416 555.663818 289.817444 557.420715 286.904205 558.994202 C 281.339233 561.999878 277.563599 560.252136 276.191589 554.042419 C 275.732422 551.964172 275.874023 549.736145 275.871735 547.576477 C 275.797729 477.58078 275.598877 407.584625 275.843842 337.589996 C 275.87738 328.007568 272.760376 320.323334 265.68692 314.855469 C 256.129089 307.467163 251.564804 299.08139 251.010941 286.428558 C 249.538376 252.788956 254.411133 221.126816 273.58313 192.712997 C 279.401123 184.090408 286.705902 176.778137 295.02121 170.5186 C 297.266235 168.828568 298.258484 167.628983 297.394073 164.09816 C 294.932556 154.043411 291.511688 144.1259 290.884888 133.691269 C 290.509064 127.43457 291.748016 126.15712 297.82663 126.151779 C 354.815826 126.101692 411.837463 124.940704 468.782623 126.520752 C 505.486145 127.539162 537.195007 143.121735 562.670532 170.097672 C 582.718445 191.326279 595.379395 216.255035 600.103943 245.238693 C 604.021973 269.274933 601.991455 292.827179 593.913574 315.570801 C 584.520874 342.016327 568.705933 364.087372 546.063171 381.187286 C 531.253113 392.371826 515.083862 400.647461 497.267426 405.378693 C 487.531921 407.963959 477.567749 410.12384 467.324615 410.09082 C 453.159088 410.045135 438.991608 410.017822 424.828186 410.21463 C 420.268524 410.277985 418.730621 408.562683 418.760345 404.028595 C 418.914551 380.530792 418.906555 357.030823 418.743561 333.533081 C 418.713623 329.214417 420.085785 327.596466 424.475983 327.685822 C 434.46994 327.889252 444.471741 327.705322 454.963989 327.67746 M 317.042358 232.674759 C 311.854309 246.327972 312.685181 259.884735 317.984802 273.253387 C 319.230438 276.395599 321.495361 278.954376 325.436005 278.921936 C 330.118347 278.883362 332.195557 275.47998 333.53241 271.905273 C 338.289154 259.185791 338.310486 246.309784 333.707733 233.530746 C 332.409912 229.92749 330.622681 226.541428 326.023895 225.992218 C 321.262451 225.423584 319.144653 228.410736 317.042358 232.674759 M 269.049957 273.340759 C 273.944489 278.576294 277.926727 278.019989 280.443481 271.339996 C 284.306 261.088135 284.155334 250.594803 281.24881 240.11998 C 280.331635 236.814621 278.838959 233.604706 274.84845 233.475754 C 270.851868 233.346619 269.150848 236.503754 267.950684 239.691956 C 263.782104 250.765457 264.182495 261.784149 269.049957 273.340759 z" stroke-linecap="round" />
</g>
<g transform="matrix(1 0 0 1 632.71 808.82)"  >
<path style="stroke: none; stroke-width: 1; stroke-dasharray: none; stroke-linecap: butt; stroke-dashoffset: 0; stroke-linejoin: miter; stroke-miterlimit: 4; fill: rgb(255,255,255); fill-rule: nonzero; opacity: 1;" vector-effect="non-scaling-stroke"  transform=" translate(-527.23, -690.63)" d="M 568.848267 683.543091 C 569.305725 693.456055 570.049438 702.911255 569.520996 712.410034 C 569.330261 715.838074 567.790894 717.233459 564.53064 717.106079 C 564.198242 717.093018 563.864258 717.111938 563.531189 717.121948 C 554.045898 717.406616 554.044006 717.406738 554.026001 708.065308 C 554.013794 701.733398 554.06842 695.400696 553.983093 689.069824 C 553.887024 681.947144 550.348206 677.683777 544.366211 677.28302 C 539.245056 676.940002 534.605591 681.512756 534.213257 688.154053 C 533.80127 695.128662 534.078735 702.143738 534.041687 709.140991 C 534.003357 716.389404 528.028992 719.972229 521.457947 716.74353 C 519.298096 715.682312 519.702454 713.739136 519.654236 711.973816 C 519.440369 704.148926 519.292175 696.322327 519.093323 688.49707 C 518.918335 681.611145 515.30304 677.268311 509.702545 677.160706 C 504.388275 677.058533 500.343628 681.666321 500.166931 688.380249 C 499.978516 695.540771 500.061981 702.708069 499.972931 709.871704 C 499.886536 716.817932 499.410797 717.197449 491.448486 717.142822 C 485.371735 717.101135 484.87027 716.608398 484.853455 710.060486 C 484.820099 697.063416 484.979736 684.063843 484.758759 671.070435 C 484.679871 666.430908 486.028229 664.291443 490.988586 664.548096 C 494.582886 664.73407 498.396912 663.373413 500.737366 667.275085 C 513.922485 661.26825 518.077271 661.813721 530.497009 671.033997 C 549.730286 657.99115 565.5802 662.987061 568.848267 683.543091 z" stroke-linecap="round" />
</g>
<g transform="matrix(1 0 0 1 271.43 800.21)"  >
<path style="stroke: none; stroke-width: 1; stroke-dasharray: none; stroke-linecap: butt; stroke-dashoffset: 0; stroke-linejoin: miter; stroke-miterlimit: 4; fill: rgb(255,255,255); fill-rule: nonzero; opacity: 1;" vector-effect="non-scaling-stroke"  transform=" translate(-165.95, -682.03)" d="M 149.037262 646.92749 C 156.192917 646.92572 162.856522 646.808594 169.514816 646.947021 C 183.835342 647.24469 196.560349 661.501892 194.959717 675.321106 C 193.460526 688.264465 182.706818 697.368286 168.04068 697.993347 C 164.384247 698.149231 160.707047 698.143555 157.053436 697.948669 C 153.336685 697.750427 151.928009 699.350586 152.137207 702.967529 C 152.309967 705.954712 152.075363 708.963379 152.179642 711.957031 C 152.301849 715.465454 150.896378 717.329224 147.217987 717.149658 C 146.05571 717.092896 144.887222 717.173035 143.721588 717.173035 C 137.492233 717.17334 136.808884 716.539551 136.811264 710.34729 C 136.818466 691.696533 136.873199 673.045837 136.886414 654.395081 C 136.891434 647.306519 137.164261 646.990417 144.046509 646.93573 C 145.545212 646.923828 147.044037 646.930115 149.037262 646.92749 M 178.816284 673.238342 C 178.61055 665.024231 174.726639 661.172974 166.569214 661.110535 C 164.742035 661.096558 162.914536 661.125488 161.087189 661.129517 C 152.126465 661.149475 152.126465 661.148865 152.141129 669.966003 C 152.164215 683.846924 152.164215 683.846863 166.025543 683.834778 C 173.675674 683.828125 176.564529 681.608032 178.816284 673.238342 z" stroke-linecap="round" />
</g>
<g transform="matrix(1 0 0 1 716.11 800.46)"  >
<path style="stroke: none; stroke-width: 1; stroke-dasharray: none; stroke-linecap: butt; stroke-dashoffset: 0; stroke-linejoin: miter; stroke-miterlimit: 4; fill: rgb(255,255,255); fill-rule: nonzero; opacity: 1;" vector-effect="non-scaling-stroke"  transform=" translate(-610.63, -682.27)" d="M 630.935303 715.230103 C 626.113586 703.924438 626.113586 703.927429 613.980408 703.942993 C 609.155823 703.949219 604.327332 704.05481 599.507874 703.89624 C 596.129089 703.785156 593.59198 704.565247 592.838562 708.281372 C 592.774658 708.596191 592.540283 708.873535 592.405701 709.17749 C 588.567078 717.848206 585.58551 719.120483 575.352356 716.133606 C 575.467957 710.731018 578.429138 706.152893 580.398376 701.370728 C 587.157471 684.956848 594.325928 668.711731 601.119873 652.311768 C 602.908508 647.994202 605.895752 646.926086 610.126343 646.959839 C 614.182922 646.99231 617.371826 647.334106 619.29364 651.899109 C 627.596313 671.620483 636.266296 691.18689 644.734314 710.839172 C 646.963867 716.013367 646.245605 717.161926 640.734985 717.075439 C 637.524231 717.025085 634.016724 718.212769 630.935303 715.230103 M 614.560181 675.860107 C 613.492188 673.01709 613.190308 669.757446 609.979553 667.401733 C 607.083862 674.254639 604.258301 680.728516 601.629028 687.281067 C 600.721252 689.543274 601.968689 690.804016 604.304749 690.824463 C 608.465698 690.860962 612.630066 690.886108 616.788025 690.757263 C 619.611206 690.6698 620.07312 689.185059 618.974487 686.714539 C 617.492859 683.382629 616.229004 679.953796 614.560181 675.860107 z" stroke-linecap="round" />
</g>
<g transform="matrix(1 0 0 1 786.95 800.15)"  >
<path style="stroke: none; stroke-width: 1; stroke-dasharray: none; stroke-linecap: butt; stroke-dashoffset: 0; stroke-linejoin: miter; stroke-miterlimit: 4; fill: rgb(255,255,255); fill-rule: nonzero; opacity: 1;" vector-effect="non-scaling-stroke"  transform=" translate(-681.47, -681.97)" d="M 652.903748 668.000427 C 652.925171 662.170288 652.980835 656.839722 652.956116 651.509644 C 652.941589 648.38916 654.392822 646.960144 657.520508 646.978271 C 667.014954 647.033203 676.612549 646.140991 685.979797 647.239502 C 699.224976 648.792664 707.656189 655.926392 709.773254 669.031982 C 711.560669 680.096741 703.972656 691.766968 692.74646 695.381042 C 686.749756 697.311584 680.326538 697.867981 673.974365 697.250122 C 669.081238 696.774231 666.762268 698.396301 667.288269 703.600037 C 667.571228 706.399231 667.102417 709.267761 667.27655 712.086243 C 667.524475 716.098145 665.627441 717.222595 661.884216 717.238098 C 653.12085 717.274231 652.913208 717.213745 652.909546 708.47937 C 652.903992 695.153015 652.90564 681.826599 652.903748 668.000427 M 678.452271 683.99176 C 689.830627 683.76355 693.584045 681.230225 693.838135 673.607056 C 694.133362 664.749695 690.738342 661.231018 681.782715 661.112244 C 667.324158 660.920532 667.238342 660.920654 667.264099 673.931519 C 667.284851 684.443542 665.50647 684.148254 678.452271 683.99176 z" stroke-linecap="round" />
</g>
<g transform="matrix(1 0 0 1 392.74 808.87)"  >
<path style="stroke: none; stroke-width: 1; stroke-dasharray: none; stroke-linecap: butt; stroke-dashoffset: 0; stroke-linejoin: miter; stroke-miterlimit: 4; fill: rgb(255,255,255); fill-rule: nonzero; opacity: 1;" vector-effect="non-scaling-stroke"  transform=" translate(-287.27, -690.69)" d="M 268.924255 669.877991 C 278.580536 662.387573 288.312775 661.833435 298.735321 668.38739 C 301.546753 662.174866 307.13205 664.8396 311.756805 664.424561 C 314.280243 664.197998 315.031342 666.29303 315.027557 668.524414 C 315.003174 683.02063 314.980133 697.516907 314.917572 712.013 C 314.908569 714.10376 314.462311 716.372681 312.000488 716.598816 C 308.325714 716.936279 304.370178 718.371216 301.11673 715.223816 C 300.545959 714.671692 300.205688 713.881348 299.43457 712.706909 C 292.173767 717.324524 284.452118 719.070251 276.25238 715.996521 C 270.412323 713.807312 266.013794 709.724243 262.91864 704.420837 C 256.685059 693.740173 259.164642 679.43927 268.924255 669.877991 M 274.931366 688.380066 C 273.924957 698.460938 279.555847 703.894836 287.48288 703.217407 C 294.493347 702.618286 298.865723 699.928894 299.535339 693.270508 C 300.238525 686.278076 298.061157 680.483032 291.746185 678.239075 C 284.014923 675.491943 278.158539 678.718079 274.931366 688.380066 z" stroke-linecap="round" />
</g>
<g transform="matrix(1 0 0 1 332.85 798.23)"  >
<path style="stroke: none; stroke-width: 1; stroke-dasharray: none; stroke-linecap: butt; stroke-dashoffset: 0; stroke-linejoin: miter; stroke-miterlimit: 4; fill: rgb(255,255,255); fill-rule: nonzero; opacity: 1;" vector-effect="non-scaling-stroke"  transform=" translate(-227.37, -680.05)" d="M 214.305237 643.526062 C 216.641281 645.385254 216.179108 647.659241 216.192383 649.778931 C 216.229736 655.745056 216.205414 661.711487 216.205414 667.305786 C 218.058884 668.580322 218.894836 667.491089 219.828201 666.910706 C 227.175476 662.342163 234.746292 662.570923 242.104614 666.504028 C 249.488602 670.450867 252.845108 677.145691 252.982574 685.373291 C 253.127197 694.030945 252.884903 702.695312 253.048538 711.352234 C 253.128708 715.593872 251.589462 717.616638 247.202637 717.16217 C 245.720154 717.008545 244.204376 717.084229 242.709366 717.161987 C 239.273621 717.340637 237.91478 715.617554 237.925919 712.329529 C 237.950165 705.16864 238.084976 697.998474 237.770493 690.849854 C 237.591904 686.790527 237.805527 682.279541 233.97287 679.433228 C 230.5625 676.900574 226.712387 676.013855 222.707901 678.021912 C 218.73584 680.013672 216.108429 683.068054 216.090546 687.780823 C 216.060837 695.608215 215.936539 703.439087 216.128448 711.261719 C 216.231613 715.466736 214.833023 717.250305 210.387115 717.215698 C 201.542206 717.146912 201.657791 717.345032 201.706085 708.376038 C 201.806564 689.724792 201.773544 671.072876 201.788284 652.421204 C 201.79599 642.67218 201.85498 642.601624 211.444916 642.982422 C 212.269135 643.015137 213.086945 643.209351 214.305237 643.526062 z" stroke-linecap="round" />
</g>
<g transform="matrix(1 0 0 1 555.35 808.81)"  >
<path style="stroke: none; stroke-width: 1; stroke-dasharray: none; stroke-linecap: butt; stroke-dashoffset: 0; stroke-linejoin: miter; stroke-miterlimit: 4; fill: rgb(255,255,255); fill-rule: nonzero; opacity: 1;" vector-effect="non-scaling-stroke"  transform=" translate(-449.87, -690.62)" d="M 473.756348 676.417847 C 482.061951 690.357117 476.661285 708.297791 462.1633 714.743042 C 447.580353 721.225891 429.243805 716.690247 423.622864 699.499207 C 418.712158 684.480225 425.478027 668.032471 443.427429 664.439941 C 455.798798 661.963806 466.139252 665.43219 473.756348 676.417847 M 450.33316 676.9599 C 449.174286 677.034546 447.980225 676.955017 446.862579 677.210205 C 441.556183 678.421936 437.244904 684.198669 437.039886 690.241333 C 436.852631 695.761169 440.451935 701.210876 445.27243 702.706238 C 451.20636 704.546997 456.970093 702.680908 460.298615 697.841309 C 465.615845 690.110168 461.06308 679.727478 450.33316 676.9599 z" stroke-linecap="round" />
</g>
<g transform="matrix(1 0 0 1 456.82 808.73)"  >
<path style="stroke: none; stroke-width: 1; stroke-dasharray: none; stroke-linecap: butt; stroke-dashoffset: 0; stroke-linejoin: miter; stroke-miterlimit: 4; fill: rgb(255,255,255); fill-rule: nonzero; opacity: 1;" vector-effect="non-scaling-stroke"  transform=" translate(-351.35, -690.55)" d="M 348.268127 664.773499 C 362.531158 661.99585 370.376984 665.649231 375.703461 677.176147 C 376.49057 678.879456 376.985962 680.591064 376.985718 682.450623 C 376.984436 692.265625 377.062256 702.081787 376.936462 711.895264 C 376.870453 717.045288 376.280609 717.108215 368.187286 717.202148 C 363.999084 717.250732 362.631012 715.637817 362.729065 711.600769 C 362.914825 703.953491 362.918213 696.29187 362.670349 688.64679 C 362.424988 681.079102 357.571564 676.551392 350.660065 676.954163 C 344.761047 677.297974 340.290283 682.106689 340.121429 688.754333 C 339.927155 696.402344 339.846069 704.064697 340.095184 711.708435 C 340.263397 716.869873 337.361542 717.280151 333.411163 717.15741 C 329.467926 717.034851 325.643372 717.55188 325.720764 711.561707 C 325.901337 697.590332 325.783844 683.614197 325.685425 669.640686 C 325.658752 665.860046 327.027161 663.831787 331.018219 664.635254 C 334.561188 665.348511 339.468628 662.155701 340.903412 668.558838 C 343.528168 667.169617 345.699707 666.020325 348.268127 664.773499 z" stroke-linecap="round" />
</g>
<g transform="matrix(1 0 0 1 505.38 802.08)"  >
<path style="stroke: none; stroke-width: 1; stroke-dasharray: none; stroke-linecap: butt; stroke-dashoffset: 0; stroke-linejoin: miter; stroke-miterlimit: 4; fill: rgb(255,255,255); fill-rule: nonzero; opacity: 1;" vector-effect="non-scaling-stroke"  transform=" translate(-399.9, -683.9)" d="M 397.301697 713.873962 C 391.715424 709.651001 391.319183 703.75769 391.072388 697.908875 C 390.85495 692.755249 390.893951 687.586304 390.971252 682.426392 C 391.020142 679.161926 390.339996 676.847534 386.369019 676.994263 C 382.765778 677.127441 381.857117 674.761292 382.035217 671.72406 C 382.215942 668.642151 381.635651 664.850708 386.279449 664.637329 C 389.263489 664.500183 389.74884 662.967896 389.934357 660.487366 C 390.695801 650.306091 390.747833 650.424072 401.197021 650.688293 C 404.638489 650.77533 406.070129 652.130005 405.99176 655.453613 C 405.929565 658.090515 405.979218 660.730042 405.979218 662.827026 C 407.72403 664.610229 409.34729 664.172852 410.768707 664.324585 C 416.785034 664.967041 419.06781 668.483948 417.07843 674.205261 C 416.056458 677.144409 413.434418 676.927185 411.23468 676.864014 C 406.991241 676.742371 405.739136 678.72168 405.933167 682.667725 C 406.170074 687.485107 406.047485 692.322876 405.997406 697.151001 C 405.957001 701.047241 407.681091 703.259583 411.690643 702.932861 C 417.624268 702.449219 417.182983 706.338562 417.438568 710.359802 C 417.730316 714.950073 415.635651 716.72699 411.461243 717.073242 C 406.526917 717.482544 401.840424 716.86969 397.301697 713.873962 z" stroke-linecap="round" />
</g>
<g transform="matrix(1 0 0 1 830.02 800.29)"  >
<path style="stroke: none; stroke-width: 1; stroke-dasharray: none; stroke-linecap: butt; stroke-dashoffset: 0; stroke-linejoin: miter; stroke-miterlimit: 4; fill: rgb(255,255,255); fill-rule: nonzero; opacity: 1;" vector-effect="non-scaling-stroke"  transform=" translate(-724.55, -682.1)" d="M 732.233032 710.770752 C 731.618652 717.200439 731.109802 717.282288 722.414917 717.267151 C 717.34259 717.258301 717.674255 714.373718 717.469543 710.752747 C 716.399109 691.811829 717.101135 672.862976 716.926941 653.920044 C 716.866455 647.347656 717.464111 646.913757 724.645386 646.941284 C 731.095886 646.966003 732.020996 647.83075 732.044067 653.973999 C 732.114563 672.748596 732.172424 691.523254 732.233032 710.770752 z" stroke-linecap="round" />
</g>
<g transform="matrix(NaN NaN NaN NaN 0 0)"  >
<g style=""   >
</g>
</g>
</svg>